<svg xmlns="http://www.w3.org/2000/svg" xmlns:xlink="http://www.w3.org/1999/xlink" contentStyleType="text/css" data-diagram-type="TIMING" height="235px" preserveAspectRatio="none" style="width:560px;height:235px;background:#FFFFFF;" version="1.1" viewBox="0 0 560 235" width="560px" zoomAndPan="magnify"><defs/><g><line style="stroke:#333333;stroke-width:0.5;stroke-dasharray:3.0,5.0;" x1="123.1455" x2="123.1455" y1="10" y2="223.9375"/><line style="stroke:#333333;stroke-width:0.5;stroke-dasharray:3.0,5.0;" x1="148.1455" x2="148.1455" y1="10" y2="223.9375"/><line style="stroke:#333333;stroke-width:0.5;stroke-dasharray:3.0,5.0;" x1="173.1455" x2="173.1455" y1="10" y2="223.9375"/><line style="stroke:#333333;stroke-width:0.5;stroke-dasharray:3.0,5.0;" x1="198.1455" x2="198.1455" y1="10" y2="223.9375"/><line style="stroke:#333333;stroke-width:0.5;stroke-dasharray:3.0,5.0;" x1="223.1455" x2="223.1455" y1="10" y2="223.9375"/><line style="stroke:#333333;stroke-width:0.5;stroke-dasharray:3.0,5.0;" x1="248.1455" x2="248.1455" y1="10" y2="223.9375"/><line style="stroke:#333333;stroke-width:0.5;stroke-dasharray:3.0,5.0;" x1="273.1455" x2="273.1455" y1="10" y2="223.9375"/><line style="stroke:#333333;stroke-width:0.5;stroke-dasharray:3.0,5.0;" x1="298.1455" x2="298.1455" y1="10" y2="223.9375"/><line style="stroke:#333333;stroke-width:0.5;stroke-dasharray:3.0,5.0;" x1="323.1455" x2="323.1455" y1="10" y2="223.9375"/><line style="stroke:#333333;stroke-width:0.5;stroke-dasharray:3.0,5.0;" x1="348.1455" x2="348.1455" y1="10" y2="223.9375"/><line style="stroke:#333333;stroke-width:0.5;stroke-dasharray:3.0,5.0;" x1="373.1455" x2="373.1455" y1="10" y2="223.9375"/><line style="stroke:#333333;stroke-width:0.5;stroke-dasharray:3.0,5.0;" x1="398.1455" x2="398.1455" y1="10" y2="223.9375"/><line style="stroke:#333333;stroke-width:0.5;stroke-dasharray:3.0,5.0;" x1="423.1455" x2="423.1455" y1="10" y2="223.9375"/><line style="stroke:#333333;stroke-width:0.5;stroke-dasharray:3.0,5.0;" x1="448.1455" x2="448.1455" y1="10" y2="223.9375"/><line style="stroke:#333333;stroke-width:0.5;stroke-dasharray:3.0,5.0;" x1="473.1455" x2="473.1455" y1="10" y2="223.9375"/><line style="stroke:#333333;stroke-width:0.5;stroke-dasharray:3.0,5.0;" x1="498.1455" x2="498.1455" y1="10" y2="223.9375"/><line style="stroke:#333333;stroke-width:0.5;stroke-dasharray:3.0,5.0;" x1="523.1455" x2="523.1455" y1="10" y2="223.9375"/><line style="stroke:#333333;stroke-width:0.5;stroke-dasharray:3.0,5.0;" x1="548.1455" x2="548.1455" y1="10" y2="223.9375"/><text fill="#333333" font-family="Futura" font-size="14" font-weight="bold" lengthAdjust="spacing" textLength="57.6953" x="15" y="29.8467">Trigger</text><line style="stroke:#006400;stroke-width:2;" x1="123.1455" x2="123.1455" y1="32" y2="32"/><line style="stroke:#006400;stroke-width:2;" x1="123.1455" x2="133.1455" y1="32" y2="32"/><line style="stroke:#006400;stroke-width:2;" x1="133.1455" x2="133.1455" y1="18" y2="32"/><line style="stroke:#006400;stroke-width:2;" x1="133.1455" x2="183.1455" y1="18" y2="18"/><line style="stroke:#006400;stroke-width:2;" x1="183.1455" x2="183.1455" y1="18" y2="32"/><line style="stroke:#006400;stroke-width:2;" x1="183.1455" x2="548.1455" y1="32" y2="32"/><text fill="#333333" font-family="Futura" font-size="14" font-weight="bold" lengthAdjust="spacing" textLength="37.4473" x="15" y="69.3311">Echo</text><line style="stroke:#006400;stroke-width:2;" x1="123.1455" x2="373.1455" y1="80.9688" y2="80.9688"/><line style="stroke:#006400;stroke-width:2;" x1="373.1455" x2="373.1455" y1="66.9688" y2="80.9688"/><line style="stroke:#006400;stroke-width:2;" x1="373.1455" x2="523.1455" y1="66.9688" y2="66.9688"/><line style="stroke:#006400;stroke-width:2;" x1="523.1455" x2="523.1455" y1="66.9688" y2="80.9688"/><line style="stroke:#006400;stroke-width:2;" x1="523.1455" x2="548.1455" y1="80.9688" y2="80.9688"/><line style="stroke:#8B0000;stroke-width:1.5;" x1="375.6455" x2="520.6455" y1="58.9688" y2="58.9688"/><polygon fill="#8B0000" points="383.6455,62.9688,383.6455,54.9688,375.6455,58.9688" style="stroke:#8B0000;stroke-width:2;"/><polygon fill="#8B0000" points="512.6455,62.9688,512.6455,54.9688,520.6455,58.9688" style="stroke:#8B0000;stroke-width:2;"/><text fill="#8B0000" font-family="Futura" font-size="12" lengthAdjust="spacing" textLength="93.7383" x="401.2764" y="51.1387">transit + return</text><text fill="#333333" font-family="Futura" font-size="14" font-weight="bold" lengthAdjust="spacing" textLength="83.0908" x="15" y="125.8154">Sound Out</text><text fill="#333333" font-family="Futura" font-size="12" lengthAdjust="spacing" textLength="10.0547" x="108.0908" y="140.123">+</text><text fill="#333333" font-family="Futura" font-size="12" lengthAdjust="spacing" textLength="7.6348" x="108.0908" y="120.123">0</text><text fill="#333333" font-family="Futura" font-size="12" lengthAdjust="spacing" textLength="4.3301" x="108.0908" y="100.123">-</text><line style="stroke:#006400;stroke-width:2;" x1="123.1455" x2="183.1455" y1="114.9688" y2="114.9688"/><rect fill="#FFFFFF" height="40" style="stroke:#006400;stroke-width:2;" width="40" x="183.1455" y="94.9688"/><line style="stroke:#006400;stroke-width:2;" x1="183.1455" x2="183.1455" y1="94.9688" y2="134.9688"/><line style="stroke:#006400;stroke-width:2;" x1="188.1455" x2="188.1455" y1="94.9688" y2="134.9688"/><line style="stroke:#006400;stroke-width:2;" x1="193.1455" x2="193.1455" y1="94.9688" y2="134.9688"/><line style="stroke:#006400;stroke-width:2;" x1="198.1455" x2="198.1455" y1="94.9688" y2="134.9688"/><line style="stroke:#006400;stroke-width:2;" x1="203.1455" x2="203.1455" y1="94.9688" y2="134.9688"/><line style="stroke:#006400;stroke-width:2;" x1="208.1455" x2="208.1455" y1="94.9688" y2="134.9688"/><line style="stroke:#006400;stroke-width:2;" x1="213.1455" x2="213.1455" y1="94.9688" y2="134.9688"/><line style="stroke:#006400;stroke-width:2;" x1="218.1455" x2="218.1455" y1="94.9688" y2="134.9688"/><line style="stroke:#006400;stroke-width:2;" x1="183.1455" x2="223.1455" y1="94.9688" y2="94.9688"/><line style="stroke:#006400;stroke-width:2;" x1="183.1455" x2="223.1455" y1="134.9688" y2="134.9688"/><line style="stroke:#006400;stroke-width:2;" x1="223.1455" x2="548.1455" y1="114.9688" y2="114.9688"/><line style="stroke:#006400;stroke-width:2;" x1="183.1455" x2="183.1455" y1="94.9688" y2="134.9688"/><line style="stroke:#006400;stroke-width:2;" x1="223.1455" x2="223.1455" y1="94.9688" y2="134.9688"/><text fill="#333333" font-family="Futura" font-size="14" font-weight="bold" lengthAdjust="spacing" textLength="69.7061" x="15" y="212.2686">Sound In</text><text fill="#333333" font-family="Futura" font-size="12" lengthAdjust="spacing" textLength="10.0547" x="108.0908" y="217.0918">+</text><text fill="#333333" font-family="Futura" font-size="12" lengthAdjust="spacing" textLength="7.6348" x="108.0908" y="197.0918">0</text><text fill="#333333" font-family="Futura" font-size="12" lengthAdjust="spacing" textLength="4.3301" x="108.0908" y="177.0918">-</text><line style="stroke:#006400;stroke-width:2;" x1="123.1455" x2="333.1455" y1="191.9375" y2="191.9375"/><rect fill="#E2E2F0" height="40" style="stroke:#006400;stroke-width:2;" width="40" x="333.1455" y="171.9375"/><line style="stroke:#006400;stroke-width:2;" x1="333.1455" x2="333.1455" y1="171.9375" y2="211.9375"/><line style="stroke:#006400;stroke-width:2;" x1="338.1455" x2="338.1455" y1="171.9375" y2="211.9375"/><line style="stroke:#006400;stroke-width:2;" x1="343.1455" x2="343.1455" y1="171.9375" y2="211.9375"/><line style="stroke:#006400;stroke-width:2;" x1="348.1455" x2="348.1455" y1="171.9375" y2="211.9375"/><line style="stroke:#006400;stroke-width:2;" x1="353.1455" x2="353.1455" y1="171.9375" y2="211.9375"/><line style="stroke:#006400;stroke-width:2;" x1="358.1455" x2="358.1455" y1="171.9375" y2="211.9375"/><line style="stroke:#006400;stroke-width:2;" x1="363.1455" x2="363.1455" y1="171.9375" y2="211.9375"/><line style="stroke:#006400;stroke-width:2;" x1="368.1455" x2="368.1455" y1="171.9375" y2="211.9375"/><line style="stroke:#006400;stroke-width:2;" x1="333.1455" x2="373.1455" y1="171.9375" y2="171.9375"/><line style="stroke:#006400;stroke-width:2;" x1="333.1455" x2="373.1455" y1="211.9375" y2="211.9375"/><line style="stroke:#006400;stroke-width:2;" x1="373.1455" x2="548.1455" y1="191.9375" y2="191.9375"/><line style="stroke:#006400;stroke-width:2;" x1="333.1455" x2="333.1455" y1="171.9375" y2="211.9375"/><line style="stroke:#006400;stroke-width:2;" x1="373.1455" x2="373.1455" y1="171.9375" y2="211.9375"/><line style="stroke:#8B0000;stroke-width:1.5;" x1="185.6455" x2="255.6455" y1="186.9375" y2="186.9375"/><polygon fill="#8B0000" points="193.6455,190.9375,193.6455,182.9375,185.6455,186.9375" style="stroke:#8B0000;stroke-width:2;"/><polygon fill="#8B0000" points="247.6455,190.9375,247.6455,182.9375,255.6455,186.9375" style="stroke:#8B0000;stroke-width:2;"/><text fill="#8B0000" font-family="Futura" font-size="12" lengthAdjust="spacing" textLength="38.8887" x="201.2012" y="179.1074">transit</text><line style="stroke:#8B0000;stroke-width:1.5;" x1="260.6455" x2="330.6455" y1="186.9375" y2="186.9375"/><polygon fill="#8B0000" points="268.6455,190.9375,268.6455,182.9375,260.6455,186.9375" style="stroke:#8B0000;stroke-width:2;"/><polygon fill="#8B0000" points="322.6455,190.9375,322.6455,182.9375,330.6455,186.9375" style="stroke:#8B0000;stroke-width:2;"/><text fill="#8B0000" font-family="Futura" font-size="12" lengthAdjust="spacing" textLength="37.166" x="277.0625" y="179.1074">return</text><!--SRC=[TP3TQi9048Nlzod6zA8NgH0ZGf5Qf11fe5HfV84rhcPf_jWVQYbzzyxingHQUfMPCzyvinFzBkkMArx1NXouBSsggSqhhmIihB6AiwhP2yYRgkMvOON4niXAZFb9QgPpNWgO0TSGpw2L9r5gnZeOThBcwXE2hPB7er01OTi_qoGl6ZTA1gTgTbOR2BB6rdjOM-E0RFqFaDP-dhBRFhKKkL5DBNEV_PAmR0q5bi7OAL7VHwwVz7te-fXbwHMVNl7f9S_Oo6Z3bO45TYEpiQKMM4yYREXAhATKFrcb2Rh7-atWJwvfGfPdNXx8CNDXcmXh7ndwD3BZnJd5qZW4Po5sCaYq2wKsNf2CWbj8ofIWDkwXPSJO5cJtDsHtbVkoPUXNUy0B_X4NZg_eBlw6cuz26k4Ol-mSXn8-eajrx6-esvKC6zop4h-0h14yZ1zXUJvx3aRnMai3hDSyW9VEGRc_YSO4ntYd7-7PWo_ie1y0]--></g></svg>